<?xml version="1.0" encoding="utf-8"?>
<!-- Generator: Adobe Illustrator 27.9.0, SVG Export Plug-In . SVG Version: 6.00 Build 0)  -->
<svg version="1.1" id="Слой_1" xmlns="http://www.w3.org/2000/svg" xmlns:xlink="http://www.w3.org/1999/xlink" x="0px" y="0px"
	 viewBox="0 0 960 560" style="enable-background:new 0 0 960 560;" xml:space="preserve">
<style type="text/css">
	.st0{fill:#9E91BC;stroke:#9E91BC;stroke-miterlimit:10;}
	.st1{fill:#6E71A8;stroke:#6E71A8;stroke-miterlimit:10;}
	.st2{font-family:'MyriadPro-Regular';}
	.st3{font-size:104.8758px;}
	.st4{fill:#77BA9B;stroke:#77BA9B;stroke-miterlimit:10;}
	.st5{font-size:102.0952px;}
	.st6{letter-spacing:2.94;}
</style>
<g>
	<path class="st0" d="M363.67,377.8l-63.45-6.59c-23.03-2.39-39.76-23-37.37-46.03l6.59-63.45c2.39-23.03,23-39.76,46.03-37.37
		l63.45,6.59c23.03,2.39,39.76,23,37.37,46.03l-6.59,63.45C407.31,363.46,386.7,380.19,363.67,377.8z"/>
	<path class="st1" d="M366.79,370.41h-54.15c-23.15,0-41.92-18.77-41.92-41.92v-54.15c0-23.15,18.77-41.92,41.92-41.92h54.15
		c23.15,0,41.92,18.77,41.92,41.92v54.15C408.72,351.64,389.95,370.41,366.79,370.41z"/>
	<text transform="matrix(1.0719 0 0 1 435.9564 335.6926)" class="st1 st2 st3">YEB</text>
	<text transform="matrix(1.0221 0 0 1 444.2152 340.3879)" class="st4 st2 st5 st6">YEB</text>
</g>
<g>
	<path class="st4" d="M386.03,287.19c-2.35-9.02-5.91-16.54-13.75-21.9c-4.01-1.66-7.59-1.42-10.94-0.12
		c-4.3,0.98-8.79,1.41-13.5,1.22c-5.14-1.48-11.63-5.81-18.44-10.82c-5.73-1.05-11.39,0.77-16.97,5
		c-6.96,5.7-12.67,12.76-17.11,21.23c-4.02,6.5-6.9,14.02-9,22.23c-1.8,7.56-1.24,13.87,3.24,18.1c5.36,1.45,10.43,1.08,15.1-1.62
		c8.76-5.69,17.43-10.19,25.76-10.65c5.8,0.07,11.26,1.62,16.37,4.71c5.55,4.49,10.61,9.48,14.81,15.32
		c5.71,7.15,11.24,12.04,16.27,10.36c5.13-1.65,8.25-8.39,10.06-20.12C389.51,308.45,389.14,297.47,386.03,287.19z M335.49,284.88
		c-1.7,7.77-9.29,12.72-16.97,11.05c-7.67-1.68-12.52-9.34-10.83-17.11c1.7-7.78,9.29-12.72,16.97-11.05
		C332.33,269.44,337.18,277.1,335.49,284.88z M360.45,293.53c-0.37,1.69-2.04,2.77-3.74,2.4c-1.69-0.37-2.77-2.04-2.4-3.74
		c0.37-1.69,2.05-2.77,3.74-2.4S360.82,291.84,360.45,293.53z M367.79,304.96c-0.37,1.7-2.04,2.77-3.74,2.4
		c-1.69-0.37-2.77-2.04-2.4-3.74c0.37-1.69,2.05-2.76,3.74-2.4C367.09,301.59,368.16,303.27,367.79,304.96z M371.88,286.19
		c-0.37,1.69-2.04,2.77-3.74,2.4c-1.69-0.37-2.76-2.04-2.4-3.74c0.37-1.69,2.05-2.77,3.74-2.4
		C371.18,282.82,372.25,284.5,371.88,286.19z M379.22,297.62c-0.37,1.7-2.04,2.77-3.74,2.4c-1.69-0.37-2.76-2.04-2.4-3.74
		c0.37-1.69,2.05-2.77,3.74-2.4C378.52,294.25,379.59,295.93,379.22,297.62z"/>
	<path class="st4" d="M329.39,283.36c-0.93,4.29-5.08,7.02-9.27,6.11c-4.19-0.91-6.83-5.13-5.89-9.42c0.93-4.28,5.08-7.02,9.27-6.1
		C327.69,274.86,330.32,279.07,329.39,283.36z"/>
</g>
</svg>
